<svg xmlns="http://www.w3.org/2000/svg" version="1.1" xmlns:xlink="http://www.w3.org/1999/xlink" width="512" height="512" x="0" y="0" viewBox="0 0 24 24" style="enable-background:new 0 0 512 512" xml:space="preserve" fill-rule="evenodd" class=""><g><path d="M7.25 7.646A2.751 2.751 0 1 1 10.75 5a2.752 2.752 0 0 1-2 2.646v5.67c.278-.142.584-.239.909-.279l4.496-.562a1.25 1.25 0 0 0 1.095-1.241v-.588A2.751 2.751 0 1 1 18.75 8a2.752 2.752 0 0 1-2 2.646v.588a2.75 2.75 0 0 1-2.409 2.729l-4.496.562a1.25 1.25 0 0 0-1.095 1.241v.588A2.751 2.751 0 1 1 5.25 19c0-1.258.846-2.319 2-2.646zM8 17.75a1.25 1.25 0 1 1 0 2.5 1.25 1.25 0 0 1 0-2.5zm8-11a1.25 1.25 0 1 1 0 2.5 1.25 1.25 0 0 1 0-2.5zm-8-3a1.25 1.25 0 1 1 0 2.5 1.25 1.25 0 0 1 0-2.5z" fill="#000000" opacity="1" data-original="#000000" class=""></path></g></svg>