<svg xmlns="http://www.w3.org/2000/svg" version="1.1" xmlns:xlink="http://www.w3.org/1999/xlink" width="512" height="512" x="0" y="0" viewBox="0 0 15 15" style="enable-background:new 0 0 512 512" xml:space="preserve" class=""><g><path fill="#000000" fill-rule="evenodd" d="M2.5 2a.5.5 0 0 0-.5.5v10a.5.5 0 0 0 .5.5h2a.5.5 0 0 0 0-1H3V3h1.5a.5.5 0 0 0 0-1zm8 0a.5.5 0 0 0 0 1H12v9h-1.5a.5.5 0 0 0 0 1h2a.5.5 0 0 0 .5-.5v-10a.5.5 0 0 0-.5-.5zM6 7H5v1h1zm1 0h1v1H7zm3 0H9v1h1z" clip-rule="evenodd" opacity="1" data-original="#000000" class=""></path></g></svg>